<svg width="40" height="40" viewBox="0 0 40 40" fill="none" xmlns="http://www.w3.org/2000/svg">
<g clip-path="url(#clip0_121_3818)">
<path d="M34.0625 32.9688C32.9375 32.9688 31.9349 33.5005 31.291 34.3253L28.2031 33.296V25.8594H30.5469C33.0491 25.8594 35.4144 24.8851 37.2067 23.116C39.008 21.3381 40 18.983 40 16.4844C40 11.3127 35.725 7.10938 30.5469 7.10938C29.8295 7.10938 29.1245 7.18977 28.4419 7.34562C27.6488 5.42391 26.3523 3.70883 24.7114 2.43352C22.6627 0.841484 20.2231 0 17.6562 0C14.5329 0 11.5898 1.23555 9.36898 3.47898C7.15617 5.71445 5.9375 8.66852 5.9375 11.7969C5.9375 11.8291 5.93789 11.8612 5.93852 11.893C2.62891 12.4419 0 15.3204 0 18.8281C0 22.7091 3.22664 25.8594 7.10938 25.8594H11.7969V33.296L8.70898 34.3253C8.06508 33.5005 7.0625 32.9688 5.9375 32.9688C3.99898 32.9688 2.42188 34.5459 2.42188 36.4844C2.42188 38.4229 3.99898 40 5.9375 40C7.85461 40 9.41719 38.4573 9.45148 36.5483L13.3393 35.2523C13.8178 35.0928 14.1406 34.6451 14.1406 34.1406V25.8594H18.8281V33.1703C17.4641 33.6541 16.4844 34.9566 16.4844 36.4844C16.4844 38.4229 18.0615 40 20 40C21.9385 40 23.5156 38.4229 23.5156 36.4844C23.5156 34.9566 22.5359 33.6541 21.1719 33.1703V25.8594H25.8594V34.1406C25.8594 34.6451 26.1822 35.0928 26.6607 35.2523L30.5485 36.5483C30.5828 38.4573 32.1454 40 34.0625 40C36.001 40 37.5781 38.4229 37.5781 36.4844C37.5781 34.5459 36.001 32.9688 34.0625 32.9688ZM5.9375 37.6562C5.29133 37.6562 4.76562 37.1305 4.76562 36.4844C4.76562 35.8382 5.29133 35.3125 5.9375 35.3125C6.58367 35.3125 7.10938 35.8382 7.10938 36.4844C7.10938 37.1305 6.58367 37.6562 5.9375 37.6562ZM20 37.6562C19.3538 37.6562 18.8281 37.1305 18.8281 36.4844C18.8281 35.8382 19.3538 35.3125 20 35.3125C20.6462 35.3125 21.1719 35.8382 21.1719 36.4844C21.1719 37.1305 20.6462 37.6562 20 37.6562ZM7.10938 23.5156C4.52617 23.5156 2.34375 21.369 2.34375 18.8281C2.34375 14.7508 7.45961 12.5493 10.424 15.5136C10.8816 15.9713 11.6236 15.9713 12.0813 15.5136C12.5389 15.0559 12.5389 14.314 12.0813 13.8563C11.0346 12.8098 9.7157 12.1356 8.28469 11.8962C8.28328 11.8629 8.28133 11.8291 8.28133 11.797C8.28133 6.58453 12.487 2.34383 17.6563 2.34383C21.3824 2.34383 24.7758 4.68664 26.2394 8.1532C25.3936 8.59172 24.6109 9.16227 23.9178 9.85531C23.4602 10.313 23.4602 11.0549 23.9178 11.5126C24.3754 11.9702 25.1174 11.9702 25.5751 11.5126C26.2465 10.8412 27.0299 10.323 27.883 9.97398C28.2107 9.92813 29.1146 9.45312 30.5469 9.45312C34.467 9.45312 37.6562 12.6073 37.6562 16.4844C37.6562 20.3614 34.467 23.5156 30.5469 23.5156H7.10938ZM34.0625 37.6562C33.4163 37.6562 32.8906 37.1305 32.8906 36.4844C32.8906 35.8382 33.4163 35.3125 34.0625 35.3125C34.7087 35.3125 35.2344 35.8382 35.2344 36.4844C35.2344 37.1305 34.7087 37.6562 34.0625 37.6562Z" fill="#5D5FEF"/>
</g>
<defs>
<clipPath id="clip0_121_3818">
<rect width="40" height="40" fill="white"/>
</clipPath>
</defs>
</svg>
