<svg width="41" height="40" viewBox="0 0 41 40" fill="none" xmlns="http://www.w3.org/2000/svg">
<g clip-path="url(#clip0_121_3883)">
<path d="M39.4948 25.8594H38.3229V8.28125C38.3229 6.34273 36.7458 4.76562 34.8073 4.76562H6.52604C4.58752 4.76562 3.01041 6.34273 3.01041 8.28125V25.8594H1.83854C1.19135 25.8594 0.666664 26.3841 0.666664 27.0312V29.375C0.666664 32.6059 3.29518 35.2344 6.52604 35.2344H34.8073C38.0381 35.2344 40.6667 32.6059 40.6667 29.375V27.0312C40.6667 26.3841 40.142 25.8594 39.4948 25.8594ZM5.35416 8.28125C5.35416 7.63508 5.87987 7.10938 6.52604 7.10938H34.8073C35.4535 7.10938 35.9792 7.63508 35.9792 8.28125V25.8594H28.6688C27.7297 25.8594 26.8469 26.2251 26.1829 26.8891C25.1838 27.8881 24.9896 28.2031 24.3834 28.2031H16.95C16.3432 28.2031 16.1483 27.8868 15.1506 26.8891C14.4866 26.2251 13.6037 25.8594 12.6646 25.8594H5.35416V8.28125ZM38.3229 29.375C38.3229 31.3135 36.7458 32.8906 34.8073 32.8906H6.52604C4.58752 32.8906 3.01041 31.3135 3.01041 29.375V28.2031H12.6646C12.9776 28.2031 13.2719 28.325 13.4931 28.5463L14.464 29.5172C15.1281 30.1812 16.0109 30.5469 16.9499 30.5469H24.3832C25.3223 30.5469 26.2051 30.1812 26.8691 29.5172L27.8399 28.5463C28.0613 28.325 28.3556 28.2031 28.6685 28.2031H38.3229V29.375Z" fill="#12B064"/>
<path d="M10.6052 17.6562L14.464 13.7974C14.9217 13.3397 14.9217 12.5978 14.464 12.1401C14.0064 11.6825 13.2644 11.6825 12.8067 12.1401L8.11924 16.8276C7.66159 17.2853 7.66159 18.0272 8.11924 18.4849L12.8067 23.1724C13.2643 23.63 14.0064 23.63 14.464 23.1724C14.9217 22.7147 14.9217 21.9728 14.464 21.5151L10.6052 17.6562Z" fill="#12B064"/>
<path d="M33.2141 16.8276L28.5266 12.1401C28.069 11.6825 27.327 11.6825 26.8693 12.1401C26.4117 12.5978 26.4117 13.3397 26.8693 13.7974L30.7281 17.6562L26.8693 21.515C26.4117 21.9727 26.4117 22.7147 26.8693 23.1724C27.3269 23.63 28.0689 23.63 28.5266 23.1724L33.2141 18.4849C33.6717 18.0272 33.6717 17.2853 33.2141 16.8276Z" fill="#12B064"/>
<path d="M23.5346 11.9206C22.9558 11.6312 22.2517 11.8658 21.9623 12.4446L17.2748 21.8196C16.9853 22.3985 17.2199 23.1024 17.7989 23.3919C18.3778 23.6814 19.0817 23.4466 19.3711 22.8678L24.0586 13.4928C24.3481 12.9139 24.1134 12.21 23.5346 11.9206Z" fill="#12B064"/>
</g>
<defs>
<clipPath id="clip0_121_3883">
<rect width="40" height="40" fill="white" transform="translate(0.666664)"/>
</clipPath>
</defs>
</svg>
