<svg width="25" height="24" viewBox="0 0 25 24" fill="none" xmlns="http://www.w3.org/2000/svg">
<g clip-path="url(#clip0_535_2365)">
<path fill-rule="evenodd" clip-rule="evenodd" d="M18.5 2C19.6046 2 20.5 2.89543 20.5 4V14H14C13.1716 14 12.5 14.6716 12.5 15.5V22H6.5C5.39543 22 4.5 21.1046 4.5 20V4C4.5 2.89543 5.39543 2 6.5 2H18.5ZM20.4566 16C20.3771 16.3759 20.1901 16.7241 19.9142 17L15.5 21.4142C15.2241 21.6901 14.8759 21.8771 14.5 21.9566V16H20.4566ZM10.5 11H9.5C8.94772 11 8.5 11.4477 8.5 12C8.5 12.5523 8.94772 13 9.5 13H10.5C11.0523 13 11.5 12.5523 11.5 12C11.5 11.4477 11.0523 11 10.5 11ZM15.5 7H9.5C8.94772 7 8.5 7.44772 8.5 8C8.5 8.55229 8.94772 9 9.5 9H15.5C16.0523 9 16.5 8.55229 16.5 8C16.5 7.44772 16.0523 7 15.5 7Z" fill="#858585"/>
</g>
<defs>
<clipPath id="clip0_535_2365">
<rect width="24" height="24" fill="white" transform="translate(0.5)"/>
</clipPath>
</defs>
</svg>
