<svg width="41" height="40" viewBox="0 0 41 40" fill="none" xmlns="http://www.w3.org/2000/svg">
<g clip-path="url(#clip0_121_3892)">
<path d="M39.4408 15.3463L35.7676 14.4446C35.5941 13.9688 35.3942 13.4923 35.1692 13.0192L37.0823 9.83055C37.359 9.36945 37.2863 8.77922 36.9061 8.39898L31.9342 3.42711C31.554 3.04688 30.9637 2.97422 30.5026 3.25086L27.314 5.16406C26.8408 4.93906 26.3645 4.73906 25.8886 4.56555L24.987 0.8925C24.8584 0.368516 24.3886 0 23.849 0H16.8177C16.2781 0 15.8083 0.368516 15.6797 0.8925L14.7781 4.56555C14.3022 4.73906 13.8258 4.93906 13.3526 5.16406L10.164 3.25086C9.70302 2.97422 9.1127 3.04688 8.73247 3.42711L3.76059 8.39898C3.38036 8.77922 3.3077 9.36945 3.58434 9.83055L5.49747 13.0192C5.27247 13.4923 5.07255 13.9688 4.89903 14.4446L1.22583 15.3463C0.701844 15.4749 0.333328 15.9448 0.333328 16.4844V23.5156C0.333328 24.0552 0.701844 24.5251 1.22583 24.6537L4.89903 25.5554C5.07255 26.0312 5.27247 26.5077 5.49747 26.9808L3.58434 30.1695C3.3077 30.6305 3.38036 31.2208 3.76059 31.601L8.73247 36.5729C9.1127 36.9531 9.70294 37.0258 10.164 36.7491L13.3526 34.8359C13.8258 35.0609 14.3022 35.2609 14.7781 35.4345L15.6797 39.1075C15.8115 39.6428 16.2942 40 16.8177 40H23.849C24.385 40 24.8582 39.6305 24.987 39.1075L25.8886 35.4345C26.3645 35.2609 26.8408 35.0609 27.314 34.8359L30.5026 36.7491C30.9636 37.0259 31.554 36.9532 31.9342 36.5729L36.9061 31.601C37.2863 31.2208 37.359 30.6305 37.0823 30.1695L35.1692 26.9808C35.3942 26.5077 35.5941 26.0312 35.7676 25.5554L39.4408 24.6537C39.9648 24.5251 40.3333 24.0552 40.3333 23.5156V16.4844C40.3333 15.9448 39.9648 15.4749 39.4408 15.3463ZM16.1677 20.9751L19.6833 23.3188C20.077 23.5812 20.5897 23.5812 20.9834 23.3188L24.499 20.9751C24.825 20.7577 25.0209 20.3919 25.0209 20V13.2666C27.2006 14.7788 28.5365 17.2665 28.5365 20C28.5365 24.5232 24.8566 28.2031 20.3334 28.2031C15.8102 28.2031 12.1303 24.5232 12.1303 20C12.1303 17.2666 13.4662 14.7788 15.6459 13.2666V20C15.6458 20.3918 15.8417 20.7577 16.1677 20.9751ZM20.3333 30.5469C21.1386 30.5469 21.923 30.4558 22.6771 30.284V37.6562H17.9896V30.284C18.7436 30.4558 19.528 30.5469 20.3333 30.5469ZM37.9896 22.5966L34.5858 23.4321C34.1884 23.5297 33.8707 23.8275 33.7476 24.2178C33.51 24.9715 33.1896 25.7359 32.7954 26.4895C32.6062 26.8513 32.619 27.2855 32.829 27.6355L34.602 30.5906L30.9241 34.2685L27.9691 32.4955C27.6189 32.2854 27.1846 32.2728 26.823 32.462C26.2254 32.7745 25.6213 33.0398 25.021 33.255V29.4459C28.4908 27.7171 30.8804 24.1326 30.8804 19.9999C30.8804 17.8618 30.2411 15.8012 29.0319 14.0409C27.8523 12.3239 26.2125 11.0037 24.29 10.2231C23.9287 10.0765 23.5181 10.1191 23.1947 10.3369C22.8711 10.5546 22.6772 10.9191 22.6772 11.309V19.3728L20.3335 20.9353L17.9897 19.3728V11.309C17.9897 10.9191 17.7958 10.5547 17.4723 10.3369C17.149 10.1191 16.7382 10.0765 16.377 10.2231C14.4544 11.0037 12.8146 12.3239 11.635 14.0409C10.4257 15.8012 9.78645 17.8619 9.78645 20C9.78645 24.1327 12.1761 27.7172 15.6458 29.446V33.2551C15.0455 33.0398 14.4414 32.7745 13.8438 32.462C13.482 32.2729 13.0479 32.2855 12.6977 32.4955L9.7427 34.2686L6.06481 30.5907L7.83778 27.6356C8.04778 27.2855 8.06059 26.8513 7.87138 26.4896C7.47716 25.7359 7.15684 24.9716 6.91919 24.2179C6.79614 23.8276 6.47833 23.5297 6.08098 23.4322L2.67708 22.5966V17.4034L6.08083 16.568C6.47825 16.4704 6.79598 16.1726 6.91903 15.7823C7.15669 15.0286 7.47708 14.2642 7.87122 13.5105C8.06044 13.1487 8.0477 12.7146 7.83763 12.3645L6.06466 9.40945L9.74255 5.73156L12.6975 7.50461C13.0478 7.71477 13.4821 7.72727 13.8436 7.53813C14.5973 7.14391 15.3617 6.82359 16.1154 6.58594C16.5057 6.46289 16.8036 6.14508 16.9011 5.74766L17.7368 2.34375H22.93L23.7654 5.7475C23.863 6.145 24.1609 6.46273 24.5512 6.58578C25.3049 6.82344 26.0693 7.14375 26.8229 7.53797C27.1847 7.72711 27.6189 7.71453 27.969 7.50445L30.924 5.73141L34.6019 9.4093L32.829 12.3644C32.619 12.7145 32.6061 13.1487 32.7954 13.5104C33.1896 14.2641 33.5099 15.0284 33.7475 15.7821C33.8706 16.1724 34.1884 16.4703 34.5858 16.5678L37.9896 17.4034V22.5966Z" fill="#12B064"/>
</g>
<defs>
<clipPath id="clip0_121_3892">
<rect width="40" height="40" fill="white" transform="translate(0.333328)"/>
</clipPath>
</defs>
</svg>
