<svg width="25" height="24" viewBox="0 0 25 24" fill="none" xmlns="http://www.w3.org/2000/svg">
<g clip-path="url(#clip0_535_2354)">
<path fill-rule="evenodd" clip-rule="evenodd" d="M19.5 11C20.5544 11 21.4182 11.8159 21.4945 12.8507L21.5 13V19C21.5 20.0544 20.6841 20.9182 19.6493 20.9945L19.5 21H15.5C14.4456 21 13.5818 20.1841 13.5055 19.1493L13.5 19V13C13.5 11.9456 14.3159 11.0818 15.3507 11.0055L15.5 11H19.5ZM9.5 15C10.6046 15 11.5 15.8954 11.5 17V19C11.5 20.1046 10.6046 21 9.5 21H5.5C4.39543 21 3.5 20.1046 3.5 19V17C3.5 15.8954 4.39543 15 5.5 15H9.5ZM9.5 3C10.6046 3 11.5 3.89543 11.5 5V11C11.5 12.1046 10.6046 13 9.5 13H5.5C4.39543 13 3.5 12.1046 3.5 11V5C3.5 3.89543 4.39543 3 5.5 3H9.5ZM19.5 3C20.6046 3 21.5 3.89543 21.5 5V7C21.5 8.10457 20.6046 9 19.5 9H15.5C14.3954 9 13.5 8.10457 13.5 7V5C13.5 3.89543 14.3954 3 15.5 3H19.5Z" fill="#858585"/>
</g>
<defs>
<clipPath id="clip0_535_2354">
<rect width="24" height="24" fill="white" transform="translate(0.5)"/>
</clipPath>
</defs>
</svg>
