<svg width="24" height="24" viewBox="0 0 24 24" fill="none" xmlns="http://www.w3.org/2000/svg">
<g clip-path="url(#clip0_535_2342)">
<path fill-rule="evenodd" clip-rule="evenodd" d="M13.2279 2.68814C12.5057 2.12641 11.4944 2.12641 10.7722 2.68814L2.38841 9.20884C1.63605 9.79401 2.04989 11 3.00297 11H4.00005V19C4.00005 20.1046 4.89548 21 6.00005 21H11V14C11 13.4477 11.4478 13 12 13C12.5523 13 13 13.4477 13 14V21H18.0001C19.1046 21 20.0001 20.1046 20.0001 19V11H20.9971C21.9492 11 22.3648 9.79463 21.6117 9.20884L13.2279 2.68814Z" fill="#12B064"/>
</g>
<defs>
<clipPath id="clip0_535_2342">
<rect width="24" height="24" fill="white"/>
</clipPath>
</defs>
</svg>
