<svg width="41" height="40" viewBox="0 0 41 40" fill="none" xmlns="http://www.w3.org/2000/svg">
<g clip-path="url(#clip0_121_3801)">
<path d="M40.6667 3.51562C40.6667 1.57711 39.0896 0 37.151 0H4.18229C2.24377 0 0.666664 1.57711 0.666664 3.51562V8.20312C0.666664 9.10219 1.00627 9.9232 1.56346 10.5455C0.98393 11.1911 0.666664 12.0164 0.666664 12.8906V17.5781C0.666664 18.4517 0.983539 19.2765 1.56229 19.9219C0.983539 20.5673 0.666664 21.392 0.666664 22.2656V26.9531C0.666664 28.8962 2.23909 30.4688 4.18229 30.4688H19.4948V33.1703C18.4976 33.524 17.7063 34.3153 17.3526 35.3125H6.60416C5.95698 35.3125 5.43229 35.8372 5.43229 36.4844C5.43229 37.1316 5.95698 37.6562 6.60416 37.6562H17.3526C17.8364 39.0202 19.1389 40 20.6667 40C22.1944 40 23.497 39.0202 23.9807 37.6562H34.7292C35.3764 37.6562 35.901 37.1316 35.901 36.4844C35.901 35.8372 35.3764 35.3125 34.7292 35.3125H23.9807C23.6271 34.3153 22.8357 33.524 21.8385 33.1703V30.4688H37.151C39.0942 30.4688 40.6667 28.8962 40.6667 26.9531V22.2656C40.6667 21.392 40.3498 20.5673 39.771 19.9219C40.3498 19.2765 40.6667 18.4517 40.6667 17.5781V12.8906C40.6667 12.0164 40.3494 11.1912 39.7698 10.5455C40.3271 9.9232 40.6667 9.10219 40.6667 8.20312V3.51562ZM20.6667 37.6562C20.0205 37.6562 19.4948 37.1305 19.4948 36.4844C19.4948 35.8382 20.0205 35.3125 20.6667 35.3125C21.3128 35.3125 21.8385 35.8382 21.8385 36.4844C21.8385 37.1305 21.3128 37.6562 20.6667 37.6562ZM38.3229 26.9531C38.3229 27.6009 37.7989 28.125 37.151 28.125H4.18229C3.53455 28.125 3.01041 27.6009 3.01041 26.9531V22.2656C3.01041 21.6179 3.53448 21.0938 4.18229 21.0938H37.151C37.7989 21.0938 38.3229 21.618 38.3229 22.2656V26.9531ZM38.3229 17.5781C38.3229 18.2258 37.7989 18.75 37.151 18.75H4.18229C3.53463 18.75 3.01041 18.2259 3.01041 17.5781V12.8906C3.01041 12.2429 3.53448 11.7188 4.18229 11.7188H37.151C37.7989 11.7188 38.3229 12.243 38.3229 12.8906V17.5781ZM38.3229 8.20312C38.3229 8.8493 37.7972 9.375 37.151 9.375H4.18229C3.53612 9.375 3.01041 8.8493 3.01041 8.20312V3.51562C3.01041 2.86945 3.53612 2.34375 4.18229 2.34375H37.151C37.7972 2.34375 38.3229 2.86945 38.3229 3.51562V8.20312Z" fill="#EFB404"/>
<path d="M15.901 4.6875H6.52604C5.87885 4.6875 5.35416 5.21219 5.35416 5.85938C5.35416 6.50656 5.87885 7.03125 6.52604 7.03125H15.901C16.5482 7.03125 17.0729 6.50656 17.0729 5.85938C17.0729 5.21219 16.5482 4.6875 15.901 4.6875Z" fill="#EFB404"/>
<path d="M15.901 14.0625H6.52604C5.87885 14.0625 5.35416 14.5872 5.35416 15.2344C5.35416 15.8816 5.87885 16.4062 6.52604 16.4062H15.901C16.5482 16.4062 17.0729 15.8816 17.0729 15.2344C17.0729 14.5872 16.5482 14.0625 15.901 14.0625Z" fill="#EFB404"/>
<path d="M15.901 23.4375H6.52604C5.87885 23.4375 5.35416 23.9622 5.35416 24.6094C5.35416 25.2566 5.87885 25.7812 6.52604 25.7812H15.901C16.5482 25.7812 17.0729 25.2566 17.0729 24.6094C17.0729 23.9622 16.5482 23.4375 15.901 23.4375Z" fill="#EFB404"/>
<path d="M34.8073 7.03125C35.4545 7.03125 35.9792 6.50658 35.9792 5.85938C35.9792 5.21217 35.4545 4.6875 34.8073 4.6875C34.1601 4.6875 33.6354 5.21217 33.6354 5.85938C33.6354 6.50658 34.1601 7.03125 34.8073 7.03125Z" fill="#EFB404"/>
<path d="M30.1198 7.03125C30.767 7.03125 31.2917 6.50658 31.2917 5.85938C31.2917 5.21217 30.767 4.6875 30.1198 4.6875C29.4726 4.6875 28.9479 5.21217 28.9479 5.85938C28.9479 6.50658 29.4726 7.03125 30.1198 7.03125Z" fill="#EFB404"/>
<path d="M34.8073 16.4062C35.4545 16.4062 35.9792 15.8816 35.9792 15.2344C35.9792 14.5872 35.4545 14.0625 34.8073 14.0625C34.1601 14.0625 33.6354 14.5872 33.6354 15.2344C33.6354 15.8816 34.1601 16.4062 34.8073 16.4062Z" fill="#EFB404"/>
<path d="M30.1198 16.4062C30.767 16.4062 31.2917 15.8816 31.2917 15.2344C31.2917 14.5872 30.767 14.0625 30.1198 14.0625C29.4726 14.0625 28.9479 14.5872 28.9479 15.2344C28.9479 15.8816 29.4726 16.4062 30.1198 16.4062Z" fill="#EFB404"/>
<path d="M34.8073 25.7812C35.4545 25.7812 35.9792 25.2566 35.9792 24.6094C35.9792 23.9622 35.4545 23.4375 34.8073 23.4375C34.1601 23.4375 33.6354 23.9622 33.6354 24.6094C33.6354 25.2566 34.1601 25.7812 34.8073 25.7812Z" fill="#EFB404"/>
<path d="M30.1198 25.7812C30.767 25.7812 31.2917 25.2566 31.2917 24.6094C31.2917 23.9622 30.767 23.4375 30.1198 23.4375C29.4726 23.4375 28.9479 23.9622 28.9479 24.6094C28.9479 25.2566 29.4726 25.7812 30.1198 25.7812Z" fill="#EFB404"/>
<path d="M25.4323 7.03125C26.0795 7.03125 26.6042 6.50658 26.6042 5.85938C26.6042 5.21217 26.0795 4.6875 25.4323 4.6875C24.7851 4.6875 24.2604 5.21217 24.2604 5.85938C24.2604 6.50658 24.7851 7.03125 25.4323 7.03125Z" fill="#EFB404"/>
<path d="M25.4323 16.4062C26.0795 16.4062 26.6042 15.8816 26.6042 15.2344C26.6042 14.5872 26.0795 14.0625 25.4323 14.0625C24.7851 14.0625 24.2604 14.5872 24.2604 15.2344C24.2604 15.8816 24.7851 16.4062 25.4323 16.4062Z" fill="#EFB404"/>
<path d="M25.4323 25.7812C26.0795 25.7812 26.6042 25.2566 26.6042 24.6094C26.6042 23.9622 26.0795 23.4375 25.4323 23.4375C24.7851 23.4375 24.2604 23.9622 24.2604 24.6094C24.2604 25.2566 24.7851 25.7812 25.4323 25.7812Z" fill="#EFB404"/>
</g>
<defs>
<clipPath id="clip0_121_3801">
<rect width="40" height="40" fill="white" transform="translate(0.666664)"/>
</clipPath>
</defs>
</svg>
