<svg width="40" height="40" viewBox="0 0 40 40" fill="none" xmlns="http://www.w3.org/2000/svg">
<g clip-path="url(#clip0_121_3875)">
<path d="M39.5238 14.2913L35.2344 11.127V5.85938C35.2344 5.21219 34.7097 4.6875 34.0625 4.6875H26.6406L20.7031 0.234375C20.2865 -0.078125 19.7135 -0.078125 19.2969 0.234375L13.3594 4.6875H5.9375C5.29031 4.6875 4.76562 5.21219 4.76562 5.85938V11.127L0.476172 14.2913C0.176719 14.5123 0 14.8623 0 15.2344V38.8281C0 39.4753 0.524687 40 1.17188 40H38.8281C39.4753 40 40 39.4753 40 38.8281V15.2344C40 14.8623 39.8233 14.5123 39.5238 14.2913ZM37.6562 15.8261V19.1963L35.2344 20.4022V14.0395L37.6562 15.8261ZM20 2.63672L22.7344 4.6875H17.2656L20 2.63672ZM32.8906 7.03125V21.5692L20 27.9878L7.10938 21.5692V7.03125H32.8906ZM4.76562 14.0395V20.4022L2.34375 19.1963V15.8261L4.76562 14.0395ZM2.34375 37.6562V21.8145L19.4777 30.3459C19.8066 30.5097 20.1934 30.5098 20.5223 30.3459L37.6562 21.8145V37.6562H2.34375Z" fill="#F2994A"/>
<path d="M12.9688 14.0625H27.0312C27.6784 14.0625 28.2031 13.5378 28.2031 12.8906C28.2031 12.2434 27.6784 11.7188 27.0312 11.7188H12.9688C12.3216 11.7188 11.7969 12.2434 11.7969 12.8906C11.7969 13.5378 12.3216 14.0625 12.9688 14.0625Z" fill="#F2994A"/>
<path d="M12.9688 18.75H20C20.6472 18.75 21.1719 18.2253 21.1719 17.5781C21.1719 16.9309 20.6472 16.4062 20 16.4062H12.9688C12.3216 16.4062 11.7969 16.9309 11.7969 17.5781C11.7969 18.2253 12.3216 18.75 12.9688 18.75Z" fill="#F2994A"/>
</g>
<defs>
<clipPath id="clip0_121_3875">
<rect width="40" height="40" fill="white"/>
</clipPath>
</defs>
</svg>
