<svg width="40" height="40" viewBox="0 0 40 40" fill="none" xmlns="http://www.w3.org/2000/svg">
<g clip-path="url(#clip0_121_3900)">
<path d="M4.76191 15.238C2.13619 15.238 0 17.3742 0 19.9999C0 22.6257 2.13619 24.7618 4.76191 24.7618C7.38762 24.7618 9.52381 22.6257 9.52381 19.9999C9.52381 17.3742 7.38762 15.238 4.76191 15.238Z" fill="#9B51E0"/>
<path d="M20 15.238C17.3743 15.238 15.2381 17.3742 15.2381 19.9999C15.2381 22.6257 17.3743 24.7618 20 24.7618C22.6257 24.7618 24.7619 22.6257 24.7619 19.9999C24.7619 17.3742 22.6257 15.238 20 15.238Z" fill="#9B51E0"/>
<path d="M35.2381 15.238C32.6124 15.238 30.4762 17.3742 30.4762 19.9999C30.4762 22.6257 32.6124 24.7618 35.2381 24.7618C37.8638 24.7618 40 22.6257 40 19.9999C40 17.3742 37.8638 15.238 35.2381 15.238Z" fill="#9B51E0"/>
</g>
<defs>
<clipPath id="clip0_121_3900">
<rect width="40" height="40" fill="white"/>
</clipPath>
</defs>
</svg>
