<svg width="40" height="40" viewBox="0 0 40 40" fill="none" xmlns="http://www.w3.org/2000/svg">
<path d="M12.9688 32.8125H10.625C9.97781 32.8125 9.45312 33.3372 9.45312 33.9844C9.45312 34.6316 9.97781 35.1562 10.625 35.1562H12.9688C13.6159 35.1562 14.1406 34.6316 14.1406 33.9844C14.1406 33.3372 13.6159 32.8125 12.9688 32.8125Z" fill="#0D824A"/>
<path d="M32.8906 26.8841V20.4631C34.2903 19.6513 35.2344 18.1374 35.2344 16.4062C35.2344 14.6699 34.2847 13.1522 32.8782 12.3422C32.5898 5.48773 26.9241 0 20 0C13.0759 0 7.41023 5.48773 7.1218 12.3422C5.71531 13.1522 4.76562 14.6699 4.76562 16.4062C4.76562 18.1374 5.70969 19.6513 7.10938 20.4631V26.8843C4.27328 28.2323 2.42188 31.1098 2.42188 34.3011V38.8281C2.42188 39.4753 2.94656 40 3.59375 40H36.4062C37.0534 40 37.5781 39.4753 37.5781 38.8281V34.2991C37.5781 31.1084 35.7266 28.2313 32.8906 26.8841ZM30.5469 14.0625C31.8392 14.0625 32.8906 15.1139 32.8906 16.4062C32.8906 17.6986 31.8392 18.75 30.5469 18.75H29.9436C30.3338 17.6498 30.5469 16.4666 30.5469 15.2344V14.0625ZM20 23.4375C15.4768 23.4375 11.7969 19.7576 11.7969 15.2344V14.0625H14.7592C16.5529 14.0625 18.3075 13.5641 19.8334 12.621C20.5849 12.1565 21.2648 11.5941 21.8572 10.9513C22.8436 12.8008 24.7929 14.0625 27.0312 14.0625H28.2031V14.371L26.9994 15.6791C25.2034 17.6307 22.6522 18.75 20 18.75C19.3528 18.75 18.8281 19.2747 18.8281 19.9219C18.8281 20.5691 19.3528 21.0938 20 21.0938C22.7811 21.0938 25.473 20.1061 27.5903 18.3442C26.3626 21.3298 23.423 23.4375 20 23.4375ZM24.82 27.9427C23.7398 29.506 21.9515 30.4688 20 30.4688C18.0485 30.4688 16.2602 29.506 15.18 27.9427C15.3948 27.9149 16.229 27.8899 16.4478 27.0342L16.888 25.3125C17.8721 25.617 18.9172 25.7812 20 25.7812C21.0828 25.7812 22.1279 25.617 23.112 25.3125L23.5522 27.0341C23.671 27.4988 24.061 27.8442 24.5366 27.9059L24.82 27.9427ZM14.7131 24.3575L14.3739 25.684L9.45312 26.3225V21.0938H11.2348C12.1297 22.428 13.3207 23.5474 14.7131 24.3575ZM28.7652 21.0938H30.5469V26.3228L25.6261 25.684L25.2869 24.3575C26.6793 23.5474 27.8704 22.428 28.7652 21.0938ZM20 2.34375C25.4195 2.34375 29.8966 6.45273 30.4814 11.7188H27.0312C25.0927 11.7188 23.5156 10.1416 23.5156 8.20312C23.5156 7.65961 23.142 7.1875 22.613 7.06258C22.0838 6.93766 21.5386 7.19289 21.2955 7.67898C20.0497 10.1709 17.5451 11.7188 14.7592 11.7188H9.51859C10.1034 6.45273 14.5805 2.34375 20 2.34375ZM9.45312 14.0625V15.2344C9.45312 16.4666 9.66625 17.6498 10.0564 18.75H9.45312C8.16078 18.75 7.10938 17.6986 7.10938 16.4062C7.10938 15.1139 8.16078 14.0625 9.45312 14.0625ZM35.2344 37.6562H4.76562V34.301C4.76562 31.8447 6.30016 29.6475 8.59602 28.7971L12.6584 28.2699C14.0414 31.0447 16.8709 32.8125 20 32.8125C23.1291 32.8125 25.9585 31.0447 27.3415 28.2701L31.4057 28.7977C33.7006 29.6477 35.2344 31.8439 35.2344 34.2991V37.6562Z" fill="#0D824A"/>
</svg>
