<svg width="40" height="40" viewBox="0 0 40 40" fill="none" xmlns="http://www.w3.org/2000/svg">
<g clip-path="url(#clip0_106_37560)">
<path d="M20 0C8.9868 0 0 8.9882 0 20C0 31.0133 8.9882 40 20 40C31.0131 40 40 31.0118 40 20C40 8.98687 31.0118 0 20 0ZM33.717 8.89656C35.948 11.6475 37.3695 15.0798 37.6164 18.8281H30.5288C30.4583 16.4581 30.1748 14.1628 29.6959 12.0305C31.2199 11.2645 32.6654 10.2375 33.717 8.89656ZM32.0941 7.14891C31.4432 8.10063 30.4159 8.97359 29.077 9.70906C28.6841 8.44758 28.2168 7.26375 27.6785 6.18102C27.1473 5.11242 26.562 4.17391 25.9334 3.37055C28.2472 4.19867 30.3393 5.49633 32.0941 7.14891ZM29.375 28.2031C29.375 28.8493 28.8493 29.375 28.2031 29.375C27.557 29.375 27.0312 28.8493 27.0312 28.2031C27.0312 27.557 27.557 27.0312 28.2031 27.0312C28.8493 27.0312 29.375 27.557 29.375 28.2031ZM21.1719 2.54422C22.7785 3.08875 24.3384 4.7275 25.5798 7.22437C26.101 8.27289 26.5498 9.42945 26.9218 10.6689C25.7795 11.0758 24.5338 11.3791 23.2238 11.5681C22.8361 10.6793 22.0915 9.98086 21.1719 9.65469V2.54422ZM21.1719 16.2828C22.2441 15.9025 23.0781 15.016 23.3861 13.9119C24.8323 13.7137 26.2168 13.3885 27.499 12.9487C27.887 14.7974 28.1198 16.779 28.1841 18.8281H21.1719V16.2828ZM21.1719 21.1562H28.1827C28.1446 22.354 28.048 23.5501 27.8939 24.7019C26.7418 24.8028 25.7475 25.4613 25.1833 26.4056C23.8923 26.1228 22.5501 25.9488 21.1719 25.8861V21.1562ZM14.0666 3.37055C13.438 4.17391 12.8527 5.11242 12.3215 6.18102C11.7832 7.26375 11.3159 8.44758 10.923 9.70906C9.58422 8.97359 8.5568 8.10063 7.90586 7.14891C9.66078 5.49641 11.7528 4.19867 14.0666 3.37055ZM11.7969 27.0312C12.443 27.0312 12.9688 27.557 12.9688 28.2031C12.9688 28.8493 12.443 29.375 11.7969 29.375C11.1507 29.375 10.625 28.8493 10.625 28.2031C10.625 27.557 11.1507 27.0312 11.7969 27.0312ZM6.28305 8.89656C7.33508 10.2382 8.78094 11.265 10.3041 12.0305C9.82523 14.1627 9.54172 16.4581 9.47125 18.8281H2.38359C2.63047 15.0798 4.05195 11.6475 6.28305 8.89656ZM6.28391 31.1045C4.05227 28.3534 2.63047 24.9208 2.38359 21.1719H9.47258C9.51445 22.5724 9.63055 23.9532 9.82125 25.2968C8.89242 25.9302 8.28125 26.9966 8.28125 28.2031C8.28125 28.5175 8.32336 28.8221 8.40109 29.1123C7.56023 29.7167 6.84734 30.3872 6.28391 31.1045ZM7.90633 32.8516C8.34695 32.2096 8.96187 31.5984 9.72797 31.043C10.2124 31.397 10.7901 31.6302 11.417 31.6979C12.1486 33.6375 13.0611 35.3199 14.0973 36.6402C11.7715 35.8127 9.66891 34.5112 7.90633 32.8516ZM18.8281 37.4534C16.8916 36.7875 15.0363 34.5133 13.7157 31.1466C14.5434 30.6053 15.1298 29.7252 15.2762 28.7045C16.4169 28.452 17.6052 28.2941 18.8281 28.2328V37.4534ZM18.8281 25.8861C17.4498 25.9488 16.1077 26.1228 14.8167 26.4056C14.2524 25.4613 13.2581 24.8028 12.1061 24.7019C11.952 23.5501 11.8554 22.3696 11.8173 21.1719H18.8281V25.8861ZM18.8281 18.8281H11.8159C11.8802 16.779 12.113 14.7974 12.5009 12.9487C13.7832 13.3886 15.1677 13.7137 16.6139 13.9119C16.9219 15.016 17.7559 15.9024 18.8281 16.2828V18.8281ZM18.8282 9.65469C17.9085 9.98086 17.1639 10.6793 16.7762 11.5681C15.4662 11.3791 14.2206 11.0757 13.0783 10.6688C13.4502 9.42938 13.899 8.27281 14.4203 7.2243C15.6616 4.72742 17.2216 3.08867 18.8282 2.54414V9.65469ZM20 14.1406C19.3634 14.1406 18.8449 13.6302 18.8296 12.9973C18.8307 12.9881 18.8327 12.9792 18.8336 12.97C18.8384 12.9213 18.8391 12.8732 18.8378 12.8255C18.9087 12.2468 19.4023 11.7969 20 11.7969C20.5975 11.7969 21.091 12.2466 21.1621 12.8252C21.1609 12.873 21.1616 12.9212 21.1663 12.97C21.1673 12.9794 21.1692 12.9884 21.1704 12.9977C21.1548 13.6304 20.6364 14.1406 20 14.1406ZM21.1719 37.4534V28.2327C22.3948 28.294 23.5831 28.4519 24.7238 28.7044C24.8702 29.7252 25.4566 30.6052 26.2843 31.1466C24.9637 34.5133 23.1084 36.7875 21.1719 37.4534ZM25.9026 36.6403C26.9389 35.3199 27.8514 33.6375 28.583 31.6979C29.2098 31.6302 29.7875 31.397 30.272 31.0431C31.038 31.5984 31.653 32.2097 32.0936 32.8516C30.331 34.5112 28.2284 35.8128 25.9026 36.6403ZM33.716 31.1046C33.1526 30.3872 32.4397 29.7168 31.5988 29.1123C31.6766 28.8221 31.7188 28.5175 31.7188 28.2031C31.7188 26.9966 31.1076 25.9302 30.1787 25.2968C30.3695 23.9532 30.4855 22.5568 30.5274 21.1562H37.6164C37.3695 24.9052 35.9477 28.3534 33.716 31.1046Z" fill="#EF5DA8"/>
</g>
<defs>
<clipPath id="clip0_106_37560">
<rect width="40" height="40" fill="white"/>
</clipPath>
</defs>
</svg>
