<svg width="41" height="40" viewBox="0 0 41 40" fill="none" xmlns="http://www.w3.org/2000/svg">
<g clip-path="url(#clip0_121_3810)">
<path d="M20.3342 0C9.30548 0 0.33374 8.97132 0.33374 19.9992C0.33374 31.0278 9.30589 40 20.3337 40C31.3612 40 40.3325 31.0278 40.3325 19.9992C40.3329 8.97174 31.3616 0 20.3342 0V0ZM2.35203 19.9992C2.35203 17.3928 2.91105 14.9173 3.90897 12.6816L12.4867 36.1829C6.48877 33.2677 2.35203 27.1168 2.35203 19.9992ZM20.3342 37.9821C18.569 37.9821 16.8653 37.7232 15.2544 37.2494L20.6492 21.5723L26.1775 36.7149C26.2132 36.8042 26.2568 36.8857 26.3055 36.9626C24.4364 37.6201 22.4281 37.9821 20.3342 37.9821ZM22.8117 11.5686C23.894 11.5116 24.8703 11.3973 24.8703 11.3973C25.8387 11.2826 25.7253 9.8591 24.7552 9.91604C24.7552 9.91604 21.8429 10.1442 19.9622 10.1442C18.1958 10.1442 15.2257 9.91604 15.2257 9.91604C14.2564 9.8591 14.1434 11.3404 15.1122 11.3973C15.1122 11.3973 16.0299 11.5116 16.9979 11.5686L19.7992 19.2448L15.8641 31.0465L9.31711 11.569C10.4011 11.5125 11.3753 11.3978 11.3753 11.3978C12.3437 11.2835 12.2294 9.8591 11.2598 9.91729C11.2598 9.91729 8.3487 10.1455 6.46757 10.1455C6.12967 10.1455 5.73191 10.1367 5.31046 10.1239C8.52493 5.24148 14.0524 2.01829 20.3342 2.01829C25.0162 2.01829 29.278 3.80798 32.4767 6.73857C32.399 6.73441 32.3238 6.72402 32.2431 6.72402C30.4775 6.72402 29.224 8.26268 29.224 9.91563C29.224 11.3969 30.0781 12.6513 30.9896 14.1326C31.6741 15.3304 32.4721 16.8695 32.4721 19.0919C32.4721 20.6313 31.8811 22.4169 31.1035 24.9048L29.31 30.8986L22.8117 11.5686ZM29.3736 35.5428L34.8662 19.6625C35.8932 17.0977 36.2336 15.0465 36.2336 13.2215C36.2336 12.5603 36.1903 11.9456 36.1122 11.3724C37.517 13.9339 38.3163 16.8736 38.3155 20C38.315 26.6334 34.719 32.4256 29.3736 35.5428Z" fill="#2F6BFF"/>
</g>
<defs>
<clipPath id="clip0_121_3810">
<rect width="40" height="40" fill="white" transform="translate(0.333328)"/>
</clipPath>
</defs>
</svg>
